# xmcd
#
# Track frame offsets: 
#        150
#        23182
#        58835
#        89833
#        108465
#        123676
#        137889
#        152518
#        167594
#        235366
#        248292
#        259478
#        271174
#        284203
#        298820
#        309514
#        321681
#        336694
#
# Disc length: 4702 seconds
#
# Revision: 1
# Processed by: cddbd v1.5.2PL0 Copyright (c) Steve Scherf et al.
# Submitted via: ExactAudioCopy v0.99pb4
#
DISCID=28125c12
DTITLE=Paul Desmond - Complete Jazz at Storyville
DYEAR=1900
DGENRE=Jazz
TTITLE0=Over the Rainbow
TTITLE1=You Go to My Head
TTITLE2=Give a Little Whistle - Oh, Lady Be Good
TTITLE3=This Can't Be Love
TTITLE4=Crazy Chris
TTITLE5=A Foggy Day
TTITLE6=Lyon's Busy
TTITLE7=Somebody Loves Me
TTITLE8=At a Perfume Counter
TTITLE9=Mam'selle
TTITLE10=Me and My Shadow
TTITLE11=Frenesi
TTITLE12=I may Be Wrong
TTITLE13=Just One of Those Things
TTITLE14=Lulu's Back in Town
TTITLE15=On a Little Street in Singapore
TTITLE16=All the Things You Are
TTITLE17=Alice in Wonderland
EXTD=
EXTT0=
EXTT1=
EXTT2=
EXTT3=
EXTT4=
EXTT5=
EXTT6=
EXTT7=
EXTT8=
EXTT9=
EXTT10=
EXTT11=
EXTT12=
EXTT13=
EXTT14=
EXTT15=
EXTT16=
EXTT17=
PLAYORDER=
